<svg width="19" height="19" viewBox="0 0 19 19" fill="none" xmlns="http://www.w3.org/2000/svg">
<path fill-rule="evenodd" clip-rule="evenodd" d="M8.59 3.97998C5.6905 3.97998 3.34 6.33048 3.34 9.22998C3.34 12.1295 5.6905 14.48 8.59 14.48C11.4895 14.48 13.84 12.1295 13.84 9.22998C13.84 6.33048 11.4895 3.97998 8.59 3.97998ZM1.84 9.22998C1.84 5.50206 4.86208 2.47998 8.59 2.47998C12.3179 2.47998 15.34 5.50206 15.34 9.22998C15.34 12.9579 12.3179 15.98 8.59 15.98C4.86208 15.98 1.84 12.9579 1.84 9.22998Z" fill="#434343"/>
<path fill-rule="evenodd" clip-rule="evenodd" d="M12.2972 12.9372C12.5901 12.6443 13.0649 12.6443 13.3578 12.9372L16.6203 16.1997C16.9132 16.4926 16.9132 16.9675 16.6203 17.2604C16.3274 17.5533 15.8526 17.5533 15.5597 17.2604L12.2972 13.9979C12.0043 13.705 12.0043 13.2301 12.2972 12.9372Z" fill="#434343"/>
</svg>
