<svg width="17" height="17" viewBox="0 0 17 17" fill="none" xmlns="http://www.w3.org/2000/svg">
<path d="M15.8375 4.49877L14.3745 1.57281C14.2051 1.23402 13.8589 1.02002 13.4801 1.02002H11.4891M15.8375 4.49877H12.3588M15.8375 4.49877C15.9825 5.36846 15.8375 7.10784 14.0981 7.10784C12.3588 7.10784 12.2138 5.36846 12.3588 4.49877M15.8375 4.49877V13.935C15.8375 14.4873 15.3898 14.935 14.8375 14.935H10.6194M11.4891 1.02002L12.3588 4.49877M11.4891 1.02002H8.88M12.3588 4.49877C12.5037 5.36846 12.3588 7.10784 10.6194 7.10784C8.88 7.10784 8.73505 5.36846 8.88 4.49877M12.3588 4.49877H8.88M10.6194 14.935V10.5866C10.6194 10.2967 10.2715 9.71691 8.88 9.71691C7.4885 9.71691 7.14062 10.2967 7.14062 10.5866V14.935M10.6194 14.935H7.14062M1.92249 4.49877L3.38547 1.57281C3.55487 1.23402 3.90113 1.02002 4.2799 1.02002H6.27095M1.92249 4.49877C1.77755 5.36846 1.92249 7.10784 3.66187 7.10784C5.40125 7.10784 5.54619 5.36846 5.40125 4.49877M1.92249 4.49877H5.40125M1.92249 4.49877V13.935C1.92249 14.4873 2.37021 14.935 2.92249 14.935H7.14062M6.27095 1.02002L5.40125 4.49877M6.27095 1.02002H8.88M5.40125 4.49877C5.2563 5.36846 5.40126 7.10784 7.14062 7.10784C8.88001 7.10784 9.02495 5.36846 8.88 4.49877M5.40125 4.49877H8.88M8.88 4.49877V1.02002" stroke="#FF9723" stroke-width="1.5"/>
</svg>
