<svg width="19" height="19" viewBox="0 0 19 19" fill="none" xmlns="http://www.w3.org/2000/svg">
<path fill-rule="evenodd" clip-rule="evenodd" d="M16.779 1.3649L17.5774 15.7358C17.6282 16.6509 16.9276 17.4339 16.0125 17.4847C15.9665 17.4869 15.9665 17.4869 15.9204 17.4873H2.73947C1.82297 17.4873 1.08 16.7443 1.08 15.8278C1.08042 15.7818 1.08042 15.7818 1.08255 15.7358L1.88094 1.3649C1.89566 1.09995 2.1148 0.892639 2.38017 0.892639H16.2797C16.5451 0.892639 16.7643 1.09995 16.779 1.3649ZM2.76879 15.3C2.75286 15.5866 2.98097 15.8278 3.26802 15.8278H15.3919C15.6789 15.8278 15.907 15.5866 15.8911 15.3L15.2091 3.0243C15.1944 2.75934 14.9753 2.55204 14.7099 2.55204H3.95C3.68463 2.55204 3.46549 2.75934 3.45077 3.0243L2.76879 15.3ZM6.01102 4.21156C5.55277 4.21156 5.18129 4.58304 5.18129 5.04129V6.28589C5.18129 8.27783 7.10896 10.0197 9.32995 10.0197C11.551 10.0197 13.4786 8.27783 13.4786 6.28589V5.04129C13.4786 4.58304 13.1071 4.21156 12.6489 4.21156C12.1906 4.21156 11.8192 4.58304 11.8192 5.04129V6.28589C11.8192 7.32171 10.6699 8.36022 9.32995 8.36022C7.99005 8.36022 6.84076 7.32171 6.84076 6.28589V5.04129C6.84076 4.58304 6.46927 4.21156 6.01102 4.21156Z" fill="#09329D"/>
</svg>
