<svg width="19" height="19" viewBox="0 0 19 19" fill="none" xmlns="http://www.w3.org/2000/svg">
<path fill-rule="evenodd" clip-rule="evenodd" d="M9.27 1.69C7.6787 1.69 6.15258 2.32214 5.02736 3.44736C3.90214 4.57258 3.27 6.0987 3.27 7.69C3.27 10.0135 4.7818 12.2682 6.43946 14.0179C7.25296 14.8766 8.069 15.5796 8.68251 16.0681C8.91084 16.2499 9.11027 16.4014 9.27 16.5194C9.42973 16.4014 9.62916 16.2499 9.85749 16.0681C10.471 15.5796 11.287 14.8766 12.1005 14.0179C13.7582 12.2682 15.27 10.0135 15.27 7.69C15.27 6.0987 14.6379 4.57258 13.5126 3.44736C12.3874 2.32214 10.8613 1.69 9.27 1.69ZM9.27 17.44C8.85397 18.064 8.85379 18.0639 8.85357 18.0638L8.85143 18.0623L8.84643 18.059L8.82924 18.0474C8.81464 18.0374 8.79381 18.0232 8.76717 18.0047C8.7139 17.9678 8.63735 17.9141 8.54084 17.8444C8.34791 17.7051 8.07477 17.5017 7.74812 17.2416C7.096 16.7223 6.22454 15.9721 5.35054 15.0496C3.6332 13.2368 1.77 10.6165 1.77 7.69C1.77 5.70088 2.56018 3.79322 3.9667 2.3867C5.37322 0.980179 7.28088 0.190002 9.27 0.190002C11.2591 0.190002 13.1668 0.980179 14.5733 2.3867C15.9798 3.79322 16.77 5.70088 16.77 7.69C16.77 10.6165 14.9068 13.2368 13.1895 15.0496C12.3155 15.9721 11.444 16.7223 10.7919 17.2416C10.4652 17.5017 10.1921 17.7051 9.99916 17.8444C9.90265 17.9141 9.8261 17.9678 9.77283 18.0047C9.74619 18.0232 9.72536 18.0374 9.71076 18.0474L9.69357 18.059L9.68857 18.0623L9.68699 18.0634C9.68678 18.0635 9.68603 18.064 9.27 17.44ZM9.27 17.44L9.68603 18.064C9.4341 18.232 9.10549 18.2317 8.85357 18.0638L9.27 17.44Z" fill="#9C0C0C"/>
<path fill-rule="evenodd" clip-rule="evenodd" d="M9.27 6.19C8.44157 6.19 7.77 6.86157 7.77 7.69C7.77 8.51843 8.44157 9.19 9.27 9.19C10.0984 9.19 10.77 8.51843 10.77 7.69C10.77 6.86157 10.0984 6.19 9.27 6.19ZM6.27 7.69C6.27 6.03315 7.61315 4.69 9.27 4.69C10.9269 4.69 12.27 6.03315 12.27 7.69C12.27 9.34685 10.9269 10.69 9.27 10.69C7.61315 10.69 6.27 9.34685 6.27 7.69Z" fill="#9C0C0C"/>
</svg>
